<?xml version="1.0" encoding="UTF-8"?><svg id="Capa_1" xmlns="http://www.w3.org/2000/svg" viewBox="0 0 20.04 20.04"><defs><style>.cls-1{fill:#fff;}.cls-2{fill:#ebac7c;}</style></defs><path class="cls-2" d="M20.04,10.02c0,5.54-4.49,10.02-10.02,10.02h0C4.49,20.04,0,15.56,0,10.02H0C0,4.49,4.49,0,10.02,0h0c5.54,0,10.02,4.49,10.02,10.02h0Z"/><path class="cls-1" d="M12.74,4.77H7.3c-1.4,0-2.54,1.14-2.54,2.54v5.44c0,1.4,1.14,2.54,2.54,2.54h5.44c1.4,0,2.54-1.14,2.54-2.54V7.3c0-1.4-1.14-2.54-2.54-2.54Zm1.63,7.79c0,1-.81,1.81-1.81,1.81H7.48c-1,0-1.81-.81-1.81-1.81V7.48c0-1,.81-1.81,1.81-1.81h5.08c1,0,1.81,.81,1.81,1.81v5.08Z"/><path class="cls-1" d="M10.03,7.3c-1.5,0-2.72,1.22-2.72,2.72s1.22,2.72,2.72,2.72,2.72-1.22,2.72-2.72-1.22-2.72-2.72-2.72Zm0,4.53c-1,0-1.81-.81-1.81-1.81s.81-1.81,1.81-1.81,1.81,.81,1.81,1.81-.81,1.81-1.81,1.81Z"/><circle class="cls-1" cx="12.93" cy="7.12" r=".54"/></svg>